<?xml version="1.0" encoding="UTF-8" standalone="no"?>
<!-- Created with Inkscape (http://www.inkscape.org/) -->

<svg
   xmlns:dc="http://purl.org/dc/elements/1.1/"
   xmlns:cc="http://creativecommons.org/ns#"
   xmlns:rdf="http://www.w3.org/1999/02/22-rdf-syntax-ns#"
   xmlns:svg="http://www.w3.org/2000/svg"
   xmlns="http://www.w3.org/2000/svg"
   xmlns:sodipodi="http://sodipodi.sourceforge.net/DTD/sodipodi-0.dtd"
   xmlns:inkscape="http://www.inkscape.org/namespaces/inkscape"
   width="199.06285mm"
   height="72.088478mm"
   viewBox="0 0 199.06285 72.088479"
   version="1.1"
   id="svg37"
   inkscape:version="0.92.2 5c3e80d, 2017-08-06"
   sodipodi:docname="pcc-logo.svg">
  <defs
     id="defs31" />
  <sodipodi:namedview
     id="base"
     pagecolor="#cacaca"
     bordercolor="#666666"
     borderopacity="1.0"
     inkscape:pageopacity="0"
     inkscape:pageshadow="2"
     inkscape:zoom="0.49497475"
     inkscape:cx="293.62523"
     inkscape:cy="50.640238"
     inkscape:document-units="mm"
     inkscape:current-layer="layer1"
     showgrid="false"
     fit-margin-top="5"
     fit-margin-left="5"
     fit-margin-right="5"
     fit-margin-bottom="5"
     inkscape:window-width="1213"
     inkscape:window-height="756"
     inkscape:window-x="0"
     inkscape:window-y="0"
     inkscape:window-maximized="1" />
  <metadata
     id="metadata34">
    <rdf:RDF>
      <cc:Work
         rdf:about="">
        <dc:format>image/svg+xml</dc:format>
        <dc:type
           rdf:resource="http://purl.org/dc/dcmitype/StillImage" />
        <dc:title></dc:title>
      </cc:Work>
    </rdf:RDF>
  </metadata>
  <g
     inkscape:label="Layer 1"
     inkscape:groupmode="layer"
     id="layer1"
     transform="translate(-8.112253,-101.4827)">
    <path
       style="fill:#ffffff;stroke-width:0.35277778"
       d="m 30.947252,167.92815 c -0.112322,-0.3539 -0.688723,-1.10796 -1.280893,-1.6757 l -1.076672,-1.03225 -7.738713,-0.10729 -7.738713,-0.10729 0.01436,-12.59271 0.01436,-12.59271 2.631469,-2.76073 2.631469,-2.76073 v 12.7267 12.7267 h 4.87486 c 5.608894,0 7.873078,0.5025 9.77039,2.16836 l 1.22975,1.07973 v -13.45962 c 0,-15.15009 -0.0078,-15.20219 -2.383305,-15.90487 -0.847969,-0.25083 -4.121162,-0.3504 -9.142529,-0.27813 -7.720257,0.11113 -7.83346,0.12368 -8.73125,0.96783 l -0.909582,0.85525 v -4.49682 -4.49683 l 0.929519,0.73116 c 0.883563,0.69501 1.361666,0.73116 9.670029,0.73116 h 8.74051 l 0.913303,-1.0854 0.913305,-1.0854 v -8.56841 c 0,-8.13426 -0.03705,-8.61551 -0.73116,-9.49793 l -0.731161,-0.92952 h 4.435327 c 4.416282,0 4.432336,0.003 3.738744,0.69658 -0.38312,0.38312 -0.788537,1.06296 -0.900927,1.51076 -0.11239,0.44779 -0.156115,4.51397 -0.09717,9.03595 l 0.107178,8.22178 0.989811,0.8508 c 0.98839,0.84957 1.002332,0.85079 9.711088,0.85079 7.322478,0 8.847028,-0.0881 9.505326,-0.54917 l 0.784052,-0.54917 v 4.06505 4.06506 l -1.206705,-0.71198 c -1.134067,-0.66911 -1.709194,-0.70556 -9.554545,-0.60546 l -8.347841,0.10651 -1.028787,1.15209 -1.028788,1.15209 v 13.63788 13.63787 l 0.79375,-0.72723 c 0.436562,-0.39999 1.508125,-1.0985 2.38125,-1.55226 1.411407,-0.7335 2.213608,-0.84553 7.231944,-1.00995 l 5.644444,-0.18494 0.176389,-12.49888 0.176389,-12.49889 2.38125,2.66099 2.38125,2.66099 v 12.57193 12.57192 l -7.320139,0.001 c -6.752438,10e-4 -7.411942,0.0573 -8.503899,0.72301 -0.651069,0.39694 -1.360561,1.19009 -1.576648,1.76258 l -0.392887,1.04078 h -6.072496 c -5.567269,0 -6.089486,-0.0535 -6.276716,-0.64344 z M 139.32105,158.3534 c -7.13691,-1.30495 -12.95522,-5.54302 -15.75727,-11.47765 -1.39566,-2.95595 -1.82804,-5.04199 -1.82804,-8.81944 0,-3.77746 0.43238,-5.86349 1.82804,-8.81945 2.33034,-4.93554 6.83777,-8.79578 12.41585,-10.63313 2.56456,-0.84473 3.44572,-0.95544 7.6604,-0.96242 4.27938,-0.007 5.0488,0.0901 7.58472,0.95768 3.815,1.30525 9.36363,5.10964 8.94544,6.1334 -0.0693,0.16965 -1.34452,1.45998 -2.83383,2.86741 l -2.70784,2.55895 -2.1007,-1.63134 c -7.22113,-5.60772 -17.81201,-2.95133 -20.74608,5.2035 -0.70684,1.96455 -0.70684,6.68625 0,8.6508 1.92725,5.35652 7.13801,8.52585 13.32078,8.10207 3.17846,-0.21786 5.83391,-1.28381 7.9415,-3.18789 l 1.38181,-1.24839 2.871,2.5308 c 1.57905,1.39193 2.88287,2.71573 2.89738,2.94178 0.0373,0.58111 -2.9299,3.11797 -5.05857,4.32493 -2.92855,1.66048 -6.30046,2.52562 -10.43728,2.67794 -2.03729,0.075 -4.45708,-0.001 -5.37731,-0.16955 z m 41.98055,0 c -7.1369,-1.30495 -12.95521,-5.54302 -15.75726,-11.47765 -1.39567,-2.95595 -1.82805,-5.04199 -1.82805,-8.81944 0,-3.77746 0.43238,-5.86349 1.82805,-8.81945 2.33033,-4.93554 6.83776,-8.79578 12.41585,-10.63313 2.56456,-0.84473 3.44571,-0.95544 7.66039,-0.96242 4.27938,-0.007 5.0488,0.0901 7.58473,0.95768 3.81499,1.30525 9.36362,5.10964 8.94544,6.1334 -0.0693,0.16965 -1.34453,1.45998 -2.83384,2.86741 l -2.70783,2.55895 -2.10071,-1.63134 c -7.22113,-5.60772 -17.812,-2.95133 -20.74608,5.2035 -0.70683,1.96455 -0.70683,6.68625 0,8.6508 1.92726,5.35652 7.13801,8.52585 13.32078,8.10207 3.17846,-0.21786 5.83392,-1.28381 7.9415,-3.18789 l 1.38182,-1.24839 2.871,2.5308 c 1.57905,1.39193 2.88287,2.71573 2.89737,2.94178 0.0373,0.58111 -2.92989,3.11797 -5.05857,4.32493 -2.92855,1.66048 -6.30046,2.52562 -10.43727,2.67794 -2.03729,0.075 -4.45709,-0.001 -5.37732,-0.16955 z M 81.551147,138.02641 V 117.7118 l 11.200694,0.145 c 12.051169,0.15601 12.821069,0.26005 16.787809,2.26877 9.41563,4.76798 9.61354,19.45538 0.32838,24.37088 -3.68312,1.94982 -5.33128,2.27407 -12.530075,2.46508 l -6.614586,0.17551 v 5.602 5.60199 h -4.586111 -4.586111 z m 22.048603,0.3194 c 1.72703,-0.91006 2.45574,-1.68863 3.16155,-3.37789 0.95664,-2.28955 0.47059,-5.29036 -1.14653,-7.0786 -0.33215,-0.3673 -1.2389,-1.00243 -2.01502,-1.4114 -1.22705,-0.64661 -2.15883,-0.76148 -7.143742,-0.88067 l -5.732639,-0.13706 v 6.95167 6.95168 l 5.732639,-0.13706 c 4.984912,-0.11919 5.916692,-0.23406 7.143742,-0.88067 z M 18.211443,124.91534 c 1.212552,-4.96806 6.160405,-10.56362 11.215386,-12.68356 3.279464,-1.37533 3.088209,-1.73871 3.088209,5.86739 0,5.60015 -0.08945,6.76702 -0.554365,7.23194 -0.465141,0.46514 -1.635265,0.55437 -7.270188,0.55437 h -6.715823 z m 24.251928,0.5468 c -0.300014,-0.30001 -0.423334,-2.40673 -0.423334,-7.23194 0,-7.91676 -0.273341,-7.52749 3.854241,-5.48876 3.817215,1.88543 6.965065,5.06496 8.827594,8.91643 2.192045,4.53287 2.567732,4.22761 -5.202946,4.22761 -4.688024,0 -6.75632,-0.1241 -7.055555,-0.42334 z"
       id="path206"
       inkscape:connector-curvature="0" />
  </g>
</svg>
