<svg viewBox="0 0 3064 1028" xmlns="http://www.w3.org/2000/svg">
	<path
		d="M297.496 1026.27C268.257 1019.89 243.195 999.466 232.172 973.128C223.702 952.591 222.658 926.832 229.619 906.179C234.028 893.184 240.062 882.626 248.3 873.343C277.655 840.74 327.547 831.921 368.389 852.11C379.064 857.448 393.799 869.166 393.103 871.951C392.755 873.343 359.339 902.931 357.25 903.627C356.67 903.859 353.537 901.654 350.289 898.754C337.409 887.151 317.685 884.598 301.093 892.372C283.34 900.726 272.318 922.539 275.799 942.844C282.296 980.437 325.575 994.941 353.305 968.718L359.687 962.801L363.98 966.514C384.517 984.498 394.495 993.781 394.495 994.825C394.495 996.681 382.196 1008.4 375.583 1012.93C367.345 1018.38 356.206 1023.14 345.415 1025.69C334.045 1028.47 308.75 1028.7 297.496 1026.27Z"
		fill="white"
	/>
	<path
		d="M52.2129 934.606V843.524H93.7509C116.608 843.524 139.698 844.104 145.035 844.8C173.23 848.281 192.607 862.785 200.845 886.454C204.326 896.665 204.674 917.55 201.425 927.064C193.999 948.993 178.683 963.381 155.478 969.994C148.516 971.967 142.251 972.547 124.498 973.127L102.105 973.823V999.698V1025.69H77.1589H52.2129V934.606ZM137.261 930.429C142.251 929.037 148.98 923.583 151.533 918.826C153.621 914.765 153.621 904.903 151.533 900.03C150.721 897.941 148.4 894.924 146.66 893.184C140.974 887.847 134.825 886.454 117.653 886.454H102.105V909.08V931.705H117.537C125.891 931.705 134.825 931.125 137.261 930.429Z"
		fill="white"
	/>
	<path
		d="M404.009 1024.64C404.242 1024.06 420.253 983.106 439.746 933.562L475.135 843.524H500.081H525.027L560.299 933.214C579.676 982.409 595.804 1023.48 596.036 1024.3C596.5 1025.34 590.583 1025.69 568.769 1025.69H540.923L536.514 1013.27C534.193 1006.31 531.756 999.582 531.292 998.189L530.248 995.521H498.572H466.897L462.024 1010.6L457.034 1025.69H430.232C414.684 1025.69 403.777 1025.22 404.009 1024.64ZM516.093 953.983C515.977 953.518 512.148 942.264 507.623 929.037C503.213 915.809 499.269 905.019 498.92 905.019C498.224 905.019 481.516 952.358 481.516 954.099C481.516 954.563 489.406 954.911 499.036 954.911C508.667 954.911 516.325 954.447 516.093 953.983Z"
		fill="white"
	/>
	<path
		d="M229.271 795.256C228.923 794.212 228.575 792.472 228.575 791.427C228.575 790.267 226.719 785.626 224.514 781.217C217.901 767.99 205.718 758.243 190.402 753.95C183.324 751.978 176.363 751.862 91.4301 751.862H0V589.771L0.116028 427.563L32.6039 393.915C50.4722 375.467 65.6719 360.151 66.252 359.919C66.8322 359.687 67.2963 421.762 67.2963 521.43V683.289L130.3 683.753C189.126 684.101 193.883 684.334 203.049 686.538C229.271 693.036 247.952 702.55 264.428 717.75L271.506 724.247L271.274 551.017L270.926 377.671L267.561 370.71C263.152 361.892 255.378 354.118 246.56 349.709L239.598 346.344H134.012H28.4269L20.653 350.173C15.4317 352.725 10.9066 356.206 6.49757 360.963L0 367.925V309.563L0.116028 251.201L2.55262 254.682C7.19374 261.063 13.2272 265.936 20.8851 269.649L28.4269 273.246H134.012H239.598L246.56 269.881C255.378 265.472 263.848 257.118 267.793 248.532L270.926 241.919L271.274 136.913C271.622 20.0729 271.97 26.3384 263.616 14.1554C261.411 10.6746 257.118 6.14949 254.334 3.94495L249.112 0H308.519H368.041L363.052 3.82893C356.438 8.81813 351.217 15.7798 347.852 24.0178L345.183 30.7474L344.835 130.996C344.719 192.491 344.951 233.564 345.648 237.277C348.316 251.317 357.25 263.152 369.897 269.417L377.671 273.246H483.257H588.842L596.616 269.417C602.07 266.749 606.363 263.5 610.888 258.511L617.269 251.433V309.795V368.157L610.772 361.079C606.247 356.09 602.07 352.841 596.616 350.173L588.842 346.344H483.257H377.671L371.29 349.36C361.427 354.118 354.582 360.847 349.593 371.058L345.183 379.876L344.835 552.642L344.603 725.523L352.609 717.982C357.018 713.805 363.052 708.699 365.953 706.611C374.074 701.158 393.799 691.991 403.778 689.207C423.154 683.869 430 683.405 491.727 683.405H549.973V521.546C549.973 432.553 550.321 359.687 550.901 359.803C551.365 359.919 566.449 375.235 584.433 393.915L617.269 427.911V589.887V751.862H525.839C426.519 751.862 428.144 751.746 415.148 758.359C402.385 764.857 390.202 780.173 388.114 792.472L387.302 797.113H308.635C237.974 797.113 229.968 796.881 229.271 795.256Z"
		fill="white"
	/>
	<path
		d="M62.6553 247.836C62.6553 247.024 64.2797 240.874 66.2521 234.261C86.6731 165.456 135.869 108.022 200.613 77.3908C212.564 71.8215 241.222 61.495 245.167 61.495C247.024 61.495 247.14 66.0201 246.908 149.444L246.56 237.278L243.775 241.222C242.267 243.311 238.902 246.096 236.233 247.256C231.708 249.344 226.835 249.46 147.124 249.46C76.3466 249.46 62.6553 249.228 62.6553 247.836Z"
		fill="white"
	/>
	<path
		d="M381.733 248.184C380.108 247.488 377.556 245.864 376.163 244.471C369.898 238.67 370.13 242.267 370.13 148.516C370.13 72.2856 370.362 61.495 371.87 61.495C372.799 61.495 378.716 63.1194 384.866 65.0919C462.256 89.9219 522.823 149.676 548.117 226.255C550.902 234.841 553.57 243.659 554.035 245.748L554.847 249.46L469.682 249.344C416.077 249.344 383.589 248.88 381.733 248.184Z"
		fill="white"
	/>
	<path
		d="M1285.07 169.424C1347.98 169.424 1402.61 180.017 1448.97 201.205C1495.32 221.73 1531.08 251.526 1556.24 290.59C1581.41 328.993 1593.99 374.348 1593.99 426.655C1593.99 478.961 1581.41 524.316 1556.24 562.719C1531.08 601.121 1495.32 630.916 1448.97 652.104C1402.61 672.63 1347.98 682.892 1285.07 682.892H1163.89V864.642H967.22V169.424H1285.07ZM1273.15 527.958C1313.55 527.958 1344.01 519.35 1364.54 502.135C1385.07 484.258 1395.33 459.098 1395.33 426.655C1395.33 394.211 1385.07 369.051 1364.54 351.174C1344.01 333.297 1313.55 324.358 1273.15 324.358H1163.89V527.958H1273.15Z"
		fill="white"
	/>
	<path
		d="M2046.24 878.547C1973.4 878.547 1907.84 863.318 1849.57 832.861C1791.96 801.742 1746.6 758.704 1713.49 703.749C1680.38 648.794 1663.82 586.555 1663.82 517.033C1663.82 447.511 1680.38 385.272 1713.49 330.317C1746.6 275.362 1791.96 232.655 1849.57 202.198C1907.84 171.079 1973.4 155.519 2046.24 155.519C2109.81 155.519 2167.09 166.775 2218.08 189.287C2269.07 211.799 2311.45 244.242 2345.22 286.618L2220.07 399.839C2175.04 345.546 2120.4 318.399 2056.17 318.399C2018.43 318.399 1984.65 326.675 1954.86 343.228C1925.72 359.781 1902.87 383.286 1886.32 413.743C1870.43 443.538 1862.48 477.968 1862.48 517.033C1862.48 556.098 1870.43 590.859 1886.32 621.316C1902.87 651.111 1925.72 674.285 1954.86 690.838C1984.65 707.391 2018.43 715.667 2056.17 715.667C2120.4 715.667 2175.04 688.52 2220.07 634.227L2345.22 747.448C2311.45 789.824 2269.07 822.267 2218.08 844.779C2167.09 867.291 2109.81 878.547 2046.24 878.547Z"
		fill="white"
	/>
	<path
		d="M2765.02 878.547C2692.18 878.547 2626.62 863.318 2568.35 832.861C2510.74 801.742 2465.37 758.704 2432.27 703.749C2399.16 648.794 2382.6 586.555 2382.6 517.033C2382.6 447.511 2399.16 385.272 2432.27 330.317C2465.37 275.362 2510.74 232.655 2568.35 202.198C2626.62 171.079 2692.18 155.519 2765.02 155.519C2828.59 155.519 2885.87 166.775 2936.86 189.287C2987.85 211.799 3030.23 244.242 3064 286.618L2938.84 399.839C2893.82 345.546 2839.18 318.399 2774.95 318.399C2737.21 318.399 2703.43 326.675 2673.64 343.228C2644.5 359.781 2621.65 383.286 2605.1 413.743C2589.21 443.538 2581.26 477.968 2581.26 517.033C2581.26 556.098 2589.21 590.859 2605.1 621.316C2621.65 651.111 2644.5 674.285 2673.64 690.838C2703.43 707.391 2737.21 715.667 2774.95 715.667C2839.18 715.667 2893.82 688.52 2938.84 634.227L3064 747.448C3030.23 789.824 2987.85 822.267 2936.86 844.779C2885.87 867.291 2828.59 878.547 2765.02 878.547Z"
		fill="white"
	/>
</svg>
